<svg width="66" height="70" viewBox="0 0 66 70" fill="none" xmlns="http://www.w3.org/2000/svg">
<g clip-path="url(#clip0_0_465)">
<path fill-rule="evenodd" clip-rule="evenodd" d="M20.6246 2.39156C17.3056 15.5995 12.2795 54.6198 64.1519 53.6681C65.5564 53.6423 66.4078 55.1827 65.5932 56.3213C62.0473 61.2732 52.4014 70.8097 31.4546 69.0545C31.4546 69.0545 1.35881 65.3572 0.0601625 31.667C0.0601625 31.667 -1.14989 12.0354 17.9084 0.404348C19.2978 -0.442097 21.02 0.821126 20.6246 2.39156Z" fill="#ADC1E3"/>
<path fill-rule="evenodd" clip-rule="evenodd" d="M18.0247 35.665C18.459 39.2828 15.8595 42.5633 12.2229 42.9951C8.5841 43.4269 5.28238 40.8425 4.85022 37.2268C4.4159 33.609 7.01319 30.3264 10.652 29.8967C14.2908 29.4649 17.5904 32.0472 18.0247 35.665Z" fill="#8AA1C4"/>
<path fill-rule="evenodd" clip-rule="evenodd" d="M26.9367 54.9661C27.2652 57.701 25.301 60.1801 22.5503 60.5067C19.7996 60.8332 17.306 58.8804 16.9776 56.1456C16.6491 53.4107 18.6133 50.9315 21.364 50.605C24.1147 50.2784 26.6083 52.2313 26.9367 54.9661Z" fill="#8AA1C4"/>
<path fill-rule="evenodd" clip-rule="evenodd" d="M36.8399 54.6258C37.1122 56.9073 35.4743 58.9762 33.1817 59.2469C30.8869 59.5197 28.8061 57.8913 28.5338 55.6097C28.2594 53.3303 29.8973 51.2593 32.192 50.9886C34.4847 50.7158 36.5655 52.3442 36.8399 54.6258Z" fill="#8AA1C4"/>
<path fill-rule="evenodd" clip-rule="evenodd" d="M53.2962 58.9081C53.5015 60.6268 52.2677 62.1865 50.539 62.3927C48.8104 62.5968 47.2417 61.3679 47.0342 59.6493C46.8289 57.9306 48.0628 56.3709 49.7914 56.1668C51.5222 55.9606 53.091 57.1894 53.2962 58.9081Z" fill="#8AA1C4"/>
<path fill-rule="evenodd" clip-rule="evenodd" d="M16.62 22.0033C16.8252 23.722 15.5914 25.2817 13.8628 25.4879C12.1341 25.692 10.5654 24.4632 10.3579 22.7445C10.1527 21.0258 11.3865 19.4661 13.1151 19.262C14.8459 19.0558 16.4147 20.2846 16.62 22.0033Z" fill="#8AA1C4"/>
<path fill-rule="evenodd" clip-rule="evenodd" d="M42.3986 16.8383C44.0732 16.8383 44.782 22.1275 45.6204 22.9116C46.4588 23.6958 51.8478 22.4067 52.4269 24.0825C53.006 25.756 48.1399 27.9881 47.6105 29.0043C47.0811 30.0205 50.0738 34.7962 48.5958 35.8016C47.1178 36.8071 43.5503 32.7703 42.3986 32.7703C41.2469 32.7703 37.6168 36.9145 36.2014 35.8016C34.7861 34.6888 37.714 30.0205 37.1846 29.0043C36.6574 27.9881 31.7826 25.7367 32.3703 24.0825C32.958 22.4261 38.3385 23.6958 39.1769 22.9116C40.0152 22.1275 40.724 16.8383 42.3986 16.8383Z" fill="#F9C900"/>
<path fill-rule="evenodd" clip-rule="evenodd" d="M52.4747 1.6712C53.581 1.6712 54.0477 5.16225 54.6009 5.68C55.1541 6.19775 58.7086 5.34486 59.0911 6.45125C59.4735 7.5555 56.2647 9.02926 55.9147 9.69954C55.5646 10.3698 57.5396 13.5214 56.5651 14.1853C55.5884 14.8491 53.2353 12.1852 52.4747 12.1852C51.7141 12.1852 49.3199 14.92 48.3842 14.1853C47.4508 13.4505 49.3847 10.3698 49.0347 9.69954C48.6846 9.02926 45.4693 7.54261 45.8583 6.45125C46.245 5.3599 49.7953 6.19775 50.3484 5.68C50.9016 5.16225 51.3705 1.6712 52.4747 1.6712Z" fill="#F9C900"/>
</g>
<defs>
<clipPath id="clip0_0_465">
<rect width="66" height="70" fill="white"/>
</clipPath>
</defs>
</svg>
