<svg width="90" height="76" viewBox="0 0 90 76" fill="none" xmlns="http://www.w3.org/2000/svg">
<g clip-path="url(#clip0_0_527)">
<path fill-rule="evenodd" clip-rule="evenodd" d="M21.5278 2.39257C18.0972 16.2232 12.9022 57.083 66.5187 56.0864C67.9704 56.0594 68.8504 57.6724 68.0084 58.8647C64.3433 64.05 54.3731 74.0361 32.7219 72.1981C32.7219 72.1981 1.61422 68.3265 0.271908 33.0481C0.271908 33.0481 -0.97883 12.4911 18.7203 0.31168C20.1564 -0.574668 21.9365 0.748105 21.5278 2.39257Z" fill="#ADC1E3"/>
<path fill-rule="evenodd" clip-rule="evenodd" d="M18.8405 37.2344C19.2894 41.0228 16.6026 44.4579 12.8436 44.9101C9.08248 45.3623 5.66974 42.656 5.22305 38.8699C4.77412 35.0815 7.45875 31.6441 11.2199 31.1942C14.9811 30.742 18.3916 33.4461 18.8405 37.2344Z" fill="#8AA1C4"/>
<path fill-rule="evenodd" clip-rule="evenodd" d="M28.0522 57.4456C28.3917 60.3094 26.3615 62.9054 23.5183 63.2474C20.6751 63.5893 18.0976 61.5444 17.7581 58.6806C17.4187 55.8169 19.4489 53.2208 22.2921 52.8789C25.1353 52.5369 27.7127 54.5818 28.0522 57.4456Z" fill="#8AA1C4"/>
<path fill-rule="evenodd" clip-rule="evenodd" d="M38.2884 57.0893C38.5698 59.4784 36.8768 61.6448 34.5071 61.9282C32.1352 62.2139 29.9844 60.5087 29.7029 58.1196C29.4193 55.7328 31.1123 53.5642 33.4842 53.2807C35.8539 52.995 38.0047 54.7002 38.2884 57.0893Z" fill="#8AA1C4"/>
<path fill-rule="evenodd" clip-rule="evenodd" d="M55.298 61.5734C55.5102 63.3731 54.2349 65.0063 52.4481 65.2223C50.6613 65.436 49.0398 64.1492 48.8254 62.3495C48.6132 60.5499 49.8885 58.9166 51.6753 58.7029C53.4643 58.487 55.0858 59.7737 55.298 61.5734Z" fill="#8AA1C4"/>
<path fill-rule="evenodd" clip-rule="evenodd" d="M17.3885 22.9289C17.6007 24.7286 16.3254 26.3618 14.5386 26.5778C12.7518 26.7915 11.1303 25.5047 10.9159 23.705C10.7037 21.9053 11.9791 20.2721 13.7658 20.0584C15.5548 19.8424 17.1763 21.1292 17.3885 22.9289Z" fill="#8AA1C4"/>
<path fill-rule="evenodd" clip-rule="evenodd" d="M17.3727 48.7844C10.268 48.7844 4.48556 54.6649 4.48556 61.8951C4.48556 69.1209 10.268 75.0037 17.3727 75.0037H73.4036C82.324 75.0037 89.5783 67.6204 89.5783 58.5455C89.5783 49.4705 82.324 42.0873 73.4036 42.0873C71.7441 42.0873 70.0936 42.3482 68.5033 42.8589L67.467 43.1941L67.1007 42.1503C63.6768 32.3555 54.5241 25.7753 44.3283 25.7753C31.8634 25.7753 21.518 35.2777 20.2628 47.8778L20.1466 49.0453L19.0031 48.9014C18.3688 48.8204 17.8506 48.7844 17.3727 48.7844Z" fill="#D6E3F2"/>
</g>
<defs>
<clipPath id="clip0_0_527">
<rect width="90" height="75.4545" fill="white"/>
</clipPath>
</defs>
</svg>
