<svg width="100" height="66" viewBox="0 0 100 66" fill="none" xmlns="http://www.w3.org/2000/svg">
<g clip-path="url(#clip0_0_346)">
<path fill-rule="evenodd" clip-rule="evenodd" d="M30.2735 16.5172C37.8312 16.5229 43.9523 22.5952 43.9465 30.081C43.9408 37.5667 37.81 43.6295 30.2523 43.6238C22.6946 43.6181 16.5735 37.5457 16.5792 30.06C16.585 22.5743 22.7158 16.5114 30.2735 16.5172Z" fill="#F9C900"/>
<path fill-rule="evenodd" clip-rule="evenodd" d="M27.0108 48.147C27.0108 48.3108 26.9896 48.4746 26.9454 48.6404L24.6743 57.008C24.3993 58.0213 23.3473 58.6213 22.3243 58.3489C21.2993 58.0765 20.6935 57.0346 20.9685 56.0213L23.2396 47.6537C23.5146 46.6404 24.5666 46.0404 25.5896 46.3108C26.4473 46.5394 27.0108 47.3089 27.0108 48.147Z" fill="#F9C900"/>
<path fill-rule="evenodd" clip-rule="evenodd" d="M17.5053 44.7118C17.5053 45.2242 17.2976 45.7346 16.8861 46.108L10.4534 51.9803C9.67456 52.6908 8.4611 52.6413 7.74379 51.8699C7.02456 51.0984 7.07456 49.8965 7.85341 49.1842L14.2861 43.3137C15.0669 42.6032 16.2803 42.6508 16.9976 43.4242C17.338 43.788 17.5053 44.2508 17.5053 44.7118Z" fill="#F9C900"/>
<mask id="mask0_0_346" style="mask-type:luminance" maskUnits="userSpaceOnUse" x="0" y="33" width="13" height="7">
<path fill-rule="evenodd" clip-rule="evenodd" d="M0 33.583V39.5527H12.3067V33.583L0 33.583L0 33.583Z" fill="white"/>
</mask>
<g mask="url(#mask0_0_346)">
<path fill-rule="evenodd" clip-rule="evenodd" d="M12.3067 35.486C12.3067 36.3317 11.7317 37.1012 10.8682 37.3222L2.39901 39.4917C1.37401 39.7546 0.32593 39.1432 0.0605455 38.1279C-0.202916 37.1127 0.412469 36.0746 1.43939 35.8117L9.90862 33.6441C10.9336 33.3812 11.9798 33.9908 12.2452 35.0079C12.2875 35.1679 12.3067 35.3279 12.3067 35.486Z" fill="#F9C900"/>
</g>
<path fill-rule="evenodd" clip-rule="evenodd" d="M12.576 24.8407C12.576 24.9969 12.5567 25.155 12.5144 25.315C12.251 26.3303 11.2048 26.9417 10.1798 26.6807L1.70673 24.5207C0.681729 24.2598 0.0644211 23.2217 0.327883 22.2064C0.591344 21.1912 1.6375 20.5798 2.66442 20.8407L11.1356 23.0007C12.001 23.2217 12.576 23.9931 12.576 24.8407Z" fill="#F9C900"/>
<path fill-rule="evenodd" clip-rule="evenodd" d="M17.4581 15.5882C17.4581 16.0644 17.2792 16.5406 16.9177 16.9082C16.1812 17.6625 14.9658 17.6815 14.2042 16.952L7.92155 10.9234C7.16001 10.1939 7.14078 8.99199 7.87732 8.2377C8.61386 7.48342 9.82924 7.46437 10.5908 8.19389L16.8735 14.2206C17.2639 14.5939 17.4581 15.091 17.4581 15.5882Z" fill="#F9C900"/>
<path fill-rule="evenodd" clip-rule="evenodd" d="M26.3706 10.3051C26.3706 11.1547 25.7898 11.928 24.9206 12.1451C23.8937 12.4023 22.8494 11.7851 22.5917 10.7661L20.4533 2.36419C20.1956 1.34514 20.8187 0.314664 21.8456 0.0575208C22.8725 -0.197717 23.9167 0.419426 24.1744 1.43657L26.3129 9.83847C26.3514 9.99466 26.3706 10.1509 26.3706 10.3051Z" fill="#F9C900"/>
<path fill-rule="evenodd" clip-rule="evenodd" d="M39.2137 2.52227C39.2137 2.68227 39.1925 2.84417 39.1502 3.00608L36.9271 11.3851C36.6579 12.4004 35.6079 13.0061 34.5829 12.7394C33.5598 12.4727 32.9464 11.4327 33.2156 10.4194L35.4387 2.03846C35.7079 1.02513 36.7579 0.417508 37.7829 0.684174C38.6444 0.908936 39.2137 1.67846 39.2137 2.52227Z" fill="#F9C900"/>
<path fill-rule="evenodd" clip-rule="evenodd" d="M53.1249 9.75731C53.1249 10.2868 52.9018 10.8144 52.4653 11.1897L45.8653 16.8773C45.0672 17.5649 43.8537 17.4811 43.1595 16.6906C42.4633 15.8983 42.5479 14.6983 43.3479 14.0087L49.9479 8.32302C50.746 7.6335 51.9576 7.71731 52.6537 8.50969C52.971 8.86969 53.1249 9.3154 53.1249 9.75731Z" fill="#F9C900"/>
<path fill-rule="evenodd" clip-rule="evenodd" d="M59.9268 22.4385C59.9268 23.2728 59.3671 24.0366 58.5152 24.269L50.0806 26.5604C49.0575 26.8385 48.0018 26.2442 47.7229 25.2309C47.4421 24.2175 48.0421 23.1737 49.0652 22.8956L57.4998 20.6042C58.5229 20.3261 59.5768 20.9204 59.8575 21.9337C59.9037 22.1014 59.9268 22.2709 59.9268 22.4385Z" fill="#F9C900"/>
<path fill-rule="evenodd" clip-rule="evenodd" d="M59.7817 37.2526C59.7817 37.4088 59.7624 37.5669 59.7201 37.7269C59.4567 38.7421 58.4105 39.3535 57.3855 39.0926L48.9124 36.9326C47.8874 36.6716 47.2682 35.6355 47.5336 34.6183C47.7971 33.6031 48.8432 32.9916 49.8701 33.2526L58.3413 35.4126C59.2067 35.6335 59.7817 36.405 59.7817 37.2526Z" fill="#F9C900"/>
<path fill-rule="evenodd" clip-rule="evenodd" d="M52.6179 50.2996C52.6179 50.793 52.4256 51.2844 52.041 51.6558C51.2833 52.3911 50.0679 52.3777 49.3276 51.6273L43.2122 45.4311C42.4718 44.6806 42.4852 43.4787 43.2429 42.7454C44.0006 42.0101 45.216 42.0235 45.9564 42.7739L52.0718 48.9701C52.4372 49.3396 52.6179 49.8196 52.6179 50.2996Z" fill="#F9C900"/>
<path fill-rule="evenodd" clip-rule="evenodd" d="M39.4106 57.3068C39.4106 58.1449 38.8472 58.9106 37.9914 59.1392C36.9683 59.4116 35.9145 58.8116 35.6395 57.7982L33.3625 49.4325C33.0875 48.4192 33.6933 47.3773 34.7164 47.103C35.7395 46.8306 36.7933 47.4306 37.0683 48.444L39.3433 56.8097C39.3895 56.9754 39.4106 57.143 39.4106 57.3068Z" fill="#F9C900"/>
<path fill-rule="evenodd" clip-rule="evenodd" d="M89.301 32.5734C94.8394 32.5734 99.3452 37.0953 99.3452 42.6572C99.3452 48.2153 94.8394 52.7372 89.301 52.7372H45.6298C38.6798 52.7372 33.024 47.0591 33.024 40.08C33.024 33.101 38.6798 27.4229 45.6298 27.4229C46.924 27.4229 48.2106 27.6229 49.449 28.0172L50.2587 28.2743L50.5433 27.4724C53.2125 19.9391 60.3452 14.8781 68.2914 14.8781C78.0067 14.8781 86.0702 22.1848 87.049 31.8762L87.1394 32.7734L88.0317 32.6629C88.524 32.6019 88.9279 32.5734 89.301 32.5734Z" fill="#C8D0D6"/>
<path fill-rule="evenodd" clip-rule="evenodd" d="M17.7248 43.0628C11.6075 43.0628 6.62866 48.0419 6.62866 54.1638C6.62866 60.2819 11.6075 65.2628 17.7248 65.2628H65.969C73.6498 65.2628 79.896 59.0114 79.896 51.3276C79.896 43.6438 73.6498 37.3924 65.969 37.3924C64.5402 37.3924 63.119 37.6133 61.7498 38.0457L60.8575 38.3295L60.5421 37.4457C57.594 29.1524 49.7133 23.5809 40.9344 23.5809C30.2017 23.5809 21.294 31.6266 20.2133 42.2952L20.1133 43.2838L19.1287 43.1619C18.5825 43.0933 18.1364 43.0628 17.7248 43.0628Z" fill="#EDF3F9"/>
</g>
<defs>
<clipPath id="clip0_0_346">
<rect width="100" height="66" fill="white"/>
</clipPath>
</defs>
</svg>
